name Walk2.mot
datacolumns 19
datarows 10
range 3.51600000 3.52500000
endheader

                time	   L_ground_force_vx	   L_ground_force_vy	   L_ground_force_vz	   L_ground_force_px	   L_ground_force_py	   L_ground_force_pz	   R_ground_force_vx	   R_ground_force_vy	   R_ground_force_vz	   R_ground_force_px	   R_ground_force_py	   R_ground_force_pz	   L_ground_torque_x	   L_ground_torque_y	   L_ground_torque_z	   R_ground_torque_x	   R_ground_torque_y	   R_ground_torque_z	
          3.51600000	         27.19544042	        650.54164329	         35.22342777	         -0.35642337	          0.00000000	         -0.00054968	          0.01114632	          0.09541316	          0.01287381	          0.00006270	          0.00000000	          0.00005441	          0.00000000	          0.24276777	          0.00000000	          0.00000000	         -0.00010444	          0.00000000	
          3.51700000	         27.54784317	        651.56072101	         35.26177059	         -0.35612510	          0.00000000	         -0.00059752	          0.01141453	          0.10367264	          0.01381329	          0.00006693	          0.00000000	          0.00005796	          0.00000000	          0.24170926	          0.00000000	          0.00000000	         -0.00003972	          0.00000000	
          3.51800000	         27.90079920	        652.58536133	         35.30199353	         -0.35582442	          0.00000000	         -0.00064591	          0.01166052	          0.11227148	          0.01478301	          0.00007127	          0.00000000	          0.00006159	          0.00000000	          0.24069048	          0.00000000	          0.00000000	          0.00003118	          0.00000000	
          3.51900000	         28.25429411	        653.61512192	         35.34406919	         -0.35552126	          0.00000000	         -0.00069485	          0.01188121	          0.12120569	          0.01578179	          0.00007573	          0.00000000	          0.00006531	          0.00000000	          0.23970763	          0.00000000	          0.00000000	          0.00010853	          0.00000000	
          3.52000000	         28.60831496	        654.64957519	         35.38796529	         -0.35521557	          0.00000000	         -0.00074433	          0.01207335	          0.13046954	          0.01680821	          0.00008029	          0.00000000	          0.00006910	          0.00000000	          0.23875669	          0.00000000	          0.00000000	          0.00019263	          0.00000000	
          3.52100000	         28.96284986	        655.68830592	         35.43364452	         -0.35490731	          0.00000000	         -0.00079435	          0.01223347	          0.14005541	          0.01786059	          0.00008494	          0.00000000	          0.00007296	          0.00000000	          0.23783341	          0.00000000	          0.00000000	          0.00028374	          0.00000000	
          3.52200000	         29.31788758	        656.73090968	         35.48106426	         -0.35459644	          0.00000000	         -0.00084491	          0.01235795	          0.14995364	          0.01893700	          0.00008967	          0.00000000	          0.00007688	          0.00000000	          0.23693352	          0.00000000	          0.00000000	          0.00038216	          0.00000000	
          3.52300000	         29.67341706	        657.77699258	         35.53017623	         -0.35428291	          0.00000000	         -0.00089600	          0.01244296	          0.16015236	          0.02003523	          0.00009447	          0.00000000	          0.00008085	          0.00000000	          0.23605289	          0.00000000	          0.00000000	          0.00048813	          0.00000000	
          3.52400000	         30.02942698	        658.82617210	         35.58092626	         -0.35396669	          0.00000000	         -0.00094763	          0.01248449	          0.17063738	          0.02115277	          0.00009932	          0.00000000	          0.00008484	          0.00000000	          0.23518788	          0.00000000	          0.00000000	          0.00060194	          0.00000000	
          3.52500000	         30.38590536	        659.87807868	         35.63325438	         -0.35364775	          0.00000000	         -0.00099981	          0.01247831	          0.18139200	          0.02228680	          0.00010422	          0.00000000	          0.00008887	          0.00000000	          0.23433554	          0.00000000	          0.00000000	          0.00072384	          0.00000000	
